<svg xmlns="http://www.w3.org/2000/svg" width="64" height="64" viewBox="0 0 64 64" fill="none">
  <path d="M64 32C64 49.6731 49.6731 64 32 64C14.3269 64 0 49.6731 0 32C0 14.3269 14.3269 0 32 0C49.6731 0 64 14.3269 64 32Z" fill="url(#paint0_linear_403_110)"/>
  <path d="M31.7 19.728C34.364 19.728 36.692 20.256 38.684 21.312C40.676 22.368 42.212 23.856 43.292 25.776C44.396 27.672 44.948 29.868 44.948 32.364C44.948 34.836 44.396 37.032 43.292 38.952C42.212 40.872 40.664 42.36 38.648 43.416C36.656 44.472 34.34 45 31.7 45H22.232V19.728H31.7ZM31.304 39.672C33.632 39.672 35.444 39.036 36.74 37.764C38.036 36.492 38.684 34.692 38.684 32.364C38.684 30.036 38.036 28.224 36.74 26.928C35.444 25.632 33.632 24.984 31.304 24.984H28.388V39.672H31.304Z" fill="white"/>
  <defs>
    <linearGradient id="paint0_linear_403_110" x1="54.3656" y1="8.10667" x2="18.2428" y2="38.2541" gradientUnits="userSpaceOnUse">
      <stop stop-color="#066756"/>
      <stop offset="1" stop-color="#23C98D"/>
    </linearGradient>
  </defs>
</svg>